<svg xmlns="http://www.w3.org/2000/svg" viewBox="0 0 800 600">
  <rect width="800" height="600" fill="#0f172a"/>
  <rect x="70" y="80" width="660" height="440" rx="22" fill="#111827" stroke="#334155"/>
  <text x="100" y="140" fill="#e2e8f0" font-family="Arial" font-size="36">Habit Tracker Heatmap</text>
  <g transform="translate(140,210)">
    <rect x="0" y="0" width="46" height="46" rx="8" fill="#0f172a"/>
    <rect x="58" y="0" width="46" height="46" rx="8" fill="#14532d"/>
    <rect x="116" y="0" width="46" height="46" rx="8" fill="#22c55e"/>
    <rect x="174" y="0" width="46" height="46" rx="8" fill="#16a34a"/>
    <rect x="232" y="0" width="46" height="46" rx="8" fill="#4ade80"/>
    <rect x="290" y="0" width="46" height="46" rx="8" fill="#14532d"/>
    <rect x="0" y="58" width="46" height="46" rx="8" fill="#22c55e"/>
    <rect x="58" y="58" width="46" height="46" rx="8" fill="#16a34a"/>
    <rect x="116" y="58" width="46" height="46" rx="8" fill="#0f172a"/>
    <rect x="174" y="58" width="46" height="46" rx="8" fill="#14532d"/>
    <rect x="232" y="58" width="46" height="46" rx="8" fill="#4ade80"/>
    <rect x="290" y="58" width="46" height="46" rx="8" fill="#16a34a"/>
    <rect x="0" y="116" width="46" height="46" rx="8" fill="#14532d"/>
    <rect x="58" y="116" width="46" height="46" rx="8" fill="#22c55e"/>
    <rect x="116" y="116" width="46" height="46" rx="8" fill="#16a34a"/>
    <rect x="174" y="116" width="46" height="46" rx="8" fill="#4ade80"/>
    <rect x="232" y="116" width="46" height="46" rx="8" fill="#14532d"/>
    <rect x="290" y="116" width="46" height="46" rx="8" fill="#22c55e"/>
  </g>
</svg>
